<svg xmlns="http://www.w3.org/2000/svg" width="32" height="32" viewBox="0 0 32 32">
  <g clip-path="url(#a)">
    <path fill-opacity=".9" d="M28.25.125C25.448-.01 23.318 2.667 22.917 8c-.037.411-.016.875-.042 1.333h-5.417c-2.385 0-4.302.782-5.416 2.292-.922 1.25-1.245 2.813-1.334 4.583-2.474.157-4.041.912-4.041 2.459 0 2.4 1.057 4 2.791 4h15.459c1.125 0 1.593-1.125 1.708-2.125.677-.177.922-.521 1.125-1.334.135-.802 2.651-14.802 2.917-16C30.802 2.01 30.65.26 28.25.125ZM17.458 12h5.334c.036 2.167.276 4.412.833 6.083-2.927-.942-7.26-1.666-9.75-1.833-.172-.016-.333-.031-.5-.042.099-1.39.39-2.4.833-3 .552-.755 1.365-1.208 3.25-1.208ZM8.542 24c-1.068 2.401-2.667 4-2.667 4H1.583C.651 28 0 28.651 0 29.583v1.084h6.667S9.182 28.53 10.25 24H8.542ZM16 24v4.458l-6.542 2.209V32h15.75v-1.333l-6.541-2.209V24H16Z"/>
  </g>
  <defs>
    <clipPath id="a">
      <path d="M0 0h32v32H0z"/>
    </clipPath>
  </defs>
</svg>
