<svg xmlns="http://www.w3.org/2000/svg" width="24" height="24" viewBox="0 0 24 24"><g clip-path="url(#a)"><path d="M12 0L0 7v17h24V7L12 0zm0 6c3.398 0 4.406.406 4.406.406.602.2 1.7.48 2 1.282.2.5.992 2.613 1.594 4.312h.813c.398 0 .773.29.875.688l.218.718c.2.301-.008.594-.406.594h-.813c.102.3.22.5.22.5.1.102.093.586.093.688v6.124c0 .399-.29.688-.688.688h-2.625a.665.665 0 01-.687-.688V20H7v1.313c0 .398-.29.687-.688.687H3.688A.665.665 0 013 21.312v-6.125c0-.101-.008-.585.094-.687 0 0 .117-.2.219-.5H2.5c-.398 0-.605-.29-.406-.688l.219-.718c.101-.301.476-.594.874-.594H4c.602-1.8 1.395-4.012 1.594-4.313.3-.699 1.3-1.082 2-1.28C7.594 6.406 8.602 6 12 6zm0 1.5c-5.102 0-5.21.8-5.313 1-.101.3-.687 1.613-1.187 3.813 0 0 2.2.687 6.5.687s6.5-.688 6.5-.688c-.5-2-1.113-3.507-1.313-3.906 0 0-.085-.906-5.187-.906zm7.094 7.313c-.399 0-1.305.394-1.907.593-.601.301-1.28.5-1.28 1 0 .399.198.594 1 .594H18c1 0 1.906-.086 1.906-.688v-.718c.102-.7-.312-.781-.812-.781zM4.5 14.905c-.309.031-.594.164-.594.688v.719c0 .601 1.008.687 1.906.687H7c.8 0 1-.195 1-.594 0-.398-.71-.707-1.313-.906-.601-.3-1.375-.594-1.875-.594-.101 0-.21-.011-.312 0z"/></g><defs><clipPath id="a"><path d="M0 0h24v24H0z"/></clipPath></defs></svg>