<svg xmlns="http://www.w3.org/2000/svg" width="32" height="32" viewBox="0 0 32 32">
  <path fill-opacity=".9" d="M9.459 0v7.875c0 .401-.391.792-.792.792s-.792-.391-.792-.792V.125c-1.333.135-2 .292-2 .292s-.542 6.109-.542 9.708c0 4 4 4.026 4 5.625C9.334 17.083 8 25.333 8 29.333A2.672 2.672 0 0 0 10.667 32a2.672 2.672 0 0 0 2.667-2.667c0-4-1.334-12.28-1.334-13.75 0-1.468 4-1.458 4-5.458 0-2.266-.416-9.708-.416-9.708S14.927.26 13.459.125V8c0 .401-.391.792-.792.792-.531 0-.792-.391-.792-.792V0H9.46Zm15.875 0c-2.667 0-6.667 8-6.667 15.333 0 0 3.333 2.401 3.333 4.667 0 4.135-2 6.401-2 9.333A2.672 2.672 0 0 0 22.667 32a2.672 2.672 0 0 0 2.666-2.667V0Z"/>
</svg>
