<svg xmlns="http://www.w3.org/2000/svg" width="24" height="24" viewBox="0 0 24 24"><g clip-path="url(#a)"><path d="M12 .96C5.913.96.96 5.913.96 12c0 1.9.491 3.77 1.422 5.42L.978 22.43a.48.48 0 00.577.596l5.23-1.296A11.047 11.047 0 0012 23.04c6.087 0 11.04-4.953 11.04-11.04C23.04 5.913 18.087.96 12 .96zm5.554 14.936c-.236.653-1.37 1.25-1.914 1.33-.488.072-1.107.102-1.785-.11a16.76 16.76 0 01-1.616-.59c-2.843-1.213-4.7-4.04-4.842-4.226-.141-.187-1.157-1.518-1.157-2.895s.732-2.054.992-2.335c.26-.28.567-.35.756-.35.19 0 .378.002.544.01.174.009.408-.066.637.48.237.561.804 1.938.874 2.079.07.14.118.304.024.49-.094.187-.142.304-.284.467-.142.164-.297.365-.425.491-.142.14-.29.291-.124.571.165.28.734 1.197 1.577 1.939 1.082.953 1.995 1.249 2.279 1.39.283.14.448.116.614-.071.165-.187.708-.817.897-1.097.188-.28.377-.234.638-.14.26.093 1.653.77 1.936.91.284.14.473.21.544.327.07.116.07.676-.165 1.33z"/></g><defs><clipPath id="a"><path d="M0 0h24v24H0z"/></clipPath></defs></svg>