<?xml version="1.0" encoding="utf-8"?><svg xmlns="http://www.w3.org/2000/svg" width="56" height="56" viewBox="0 0 56 56"><path fill-opacity=".9" d="M21 23.333c2.884 0 4.464-1.066 7-2.333 2.147-1.073 5.217-2.333 7-2.333 1.783 0 4.853 1.26 7 2.333 2.536 1.267 4.116 2.333 7 2.333v-4.666c-1.421 0-3-.649-4.667-1.454V4.667H11.667v10.371C10.17 14.441 8.63 14 7 14v4.667c1.421 0 3 .648 4.667 1.453v4.252C10.17 23.774 8.63 23.333 7 23.333V28c1.421 0 3 .649 4.667 1.454v4.251C10.17 33.108 8.63 32.667 7 32.667v4.666c1.421 0 3 .65 4.667 1.454v12.546h32.666V40.97C45.83 41.564 47.37 42 49 42v-4.667c-1.783 0-4.853-1.26-7-2.333-2.536-1.267-4.116-2.333-7-2.333-2.884 0-4.464 1.066-7 2.333-2.147 1.073-5.217 2.333-7 2.333-1.421 0-3-.648-4.667-1.453v-4.245c1.496.595 3.036 1.032 4.667 1.032 2.884 0 5.507-1.314 8.043-2.579C31.19 29.015 33.217 28 35 28c1.783 0 3.81 1.015 5.957 2.088 2.536 1.267 5.159 2.579 8.043 2.579V28c-1.783 0-4.853-1.26-7-2.333-2.536-1.267-4.116-2.334-7-2.334-2.884 0-4.464 1.067-7 2.334C25.853 26.74 22.783 28 21 28c-1.421 0-3-.649-4.667-1.454v-4.244c1.496.595 3.036 1.031 4.667 1.031z"/></svg>