<?xml version="1.0" encoding="utf-8"?><svg xmlns="http://www.w3.org/2000/svg" width="24" height="24" viewBox="0 0 24 24"><g clip-path="url(#ca)"><path d="M12 0L.687 2.813l-.03.03L0 3v.5A.986.986 0 000 4v15l12 5 12-5V3L12 0zm0 2.094l8.406 2.094-6.625 2.218-8.906-2.531L12 2.094zm.594.812c-.7 0-1.399.082-2 .281l-.906.313c-.602.2-.876.395-.876.594 0 .199.274.394.876.593.601.102 1.207.22 1.906.22.601-.102 1.219-.114 1.719-.313l-.907-.282c-.3.102-.601.188-1 .188-.398 0-.695.008-1.094-.094-.3 0-.507-.113-.406-.312.102-.102.29-.207.688-.407l.906-.28c.398-.102.914-.22 1.313-.22.398 0 .886.024 1.187.126.398.101.594.18.594.28 0 .102-.2.212-.5.313l.812.188c.5-.2.79-.301.688-.5-.102-.2-.399-.399-1-.5-.602-.2-1.2-.188-2-.188zM2 5.125l10 2.844v13.937L2 17.688V5.124zm4.094 3.281l-2.188 7.906L5 16.688l.406-1.875 2.282.876.625 2.218 1.093.5-2.312-9.718-1-.282zm.5 2.094l.812 3.813-1.718-.626.906-3.187z"/></g><defs><clipPath id="ca"><path d="M0 0h24v24H0z"/></clipPath></defs></svg>