<?xml version="1.0" encoding="utf-8"?><svg xmlns="http://www.w3.org/2000/svg" width="24" height="24" viewBox="0 0 24 24"><g clip-path="url(#ha)"><path d="M20.82 9.613l-.054-.078.047-.152.128.023.118.067.015-.012-.039.105-.105.051-.11-.004zm.664.707l-.047-.168-1.019-.66-.246-.015-.223.242-.11.3.09.165 1.555.136zm-15.66-.797l-.117.422.383-.433.031-.133-.164-.066-.133.21zm.23-.683v.023l-.652.309.825-.164-.172-.168zm.497.82l.082-.062.07-.164-.012.02.055-.192-.152-.024-.121.032-.078.082-.04.14.106.133.09.035zm13.062-2.945l-.117-.063-.523-.035-.22-.183.267-.98-1.301 2.105-.344.253.637.243 1.601-1.34zm1.227 5.84l1.297 2.054-1.047-1.945-.25-.11zM24 12c0 6.629-5.371 12-12 12-6.625 0-12-5.371-12-12S5.375 0 12 0c6.629 0 12 5.371 12 12zm-8.73-4.848l.003 1.024.207.52.493-.114.027-.336-.73-1.094zM16 5.324l-.176-.07-.37.082-.356-.078-.016.441.04.098.48.047.304-.242.094-.278zm-7.113-3.18l.597-.023 1.168-.762c-.375.047-.738.11-1.097.196l-.211.28-.457.31zm-.746.348l.394.317.504.066.316-.3-.19-.028-.778-.445-.227-.043-.02.433zm-1.032-.047l.043.059.223-.016.238-.101.13-.16-.048-.067c-.199.086-.39.188-.586.285zM6.535 3.66l.297.043.211-.246.059-.289-.16-.082-.403.445-.004.13zm-2.148.824l.527.301.777-.36.606-.648.016-.586-.524.102-.055-.02c-.367.262-.714.551-1.046.86l.054.058-.316.22-.04.073zm-2.953 8.48l-.235-.398c0 .036.004.07.008.106l.219.488.008-.195zm10.656 4.661l-.543-.402-1.55-.461-.907-1.188-1.121-.426-2.63-.09-.796-1.343-.211-.027-.652.316-.239-.254-.043-.367.079-.305.414-.558.488-.274 1.223.227.18.515.374.086-.004-.781 1.024-1.488 2.258-1.262-.329-.04-.582-.433 1.485-.422.055.133-.024.125-.09.121-.164.114.117.16.364.015.293-.109-.973-2.352-.137.016-1.187-.57-.266.258-.691 1.77-.332-.302-.793-.363-.489-.555.575-.867 1.757-1.36.262-.734.809.512.129.281-.852.696.848.531.183-.098.09.004.36-.566-.082-.094.496-.543-.38-.656-.984-.836.52-.094-.027-.137-.286-.062-.82.46.266-.433-.551.176-.098 1.348-.437.297-.309-.29.805-1.503-.063-.063-.074-.031h-.086l-.094.035-1.28 1.785.027-.11.128-.245-.046-.102-.22.13-1.843.378-.336-.184a10.785 10.785 0 00-2.902 7.438c0 .035.008.07.008.105l.004-.015.265.097.977 1.657 2.933 1.293.403.445.007.59-.367.875-.02.476 1.274 2.461.04 1.367a10.86 10.86 0 002.183.942l1.332-1.707 1.183-.871.692-2.262zM7.656 5.598l-.101-.145-.098-.023-.367.465.062.07h.453l.141-.09-.09-.277zm4.504.968l3.05-2.636.716-1.918a10.743 10.743 0 00-4.004-.742c-.188 0-.367.02-.555.03l-.14.079-.286.41-.058.277.113.204.781.101.23 1.516-.39.914-.094.668.247.71.39.387zm10.219 8.329l.082-.051c.238-.903.371-1.852.363-2.828-.004-.7-.082-1.375-.21-2.036l-.06-.117.024-.078a10.69 10.69 0 00-1.933-4.187l-.067.027-.394-.402.144-.043c-.34-.407-.71-.782-1.105-1.133l-.332-.024-.602.258-1.582 2.149.074.277.742.57v.293l-2.085 1.54.015.199.168.285.059.254-.907.359-.07.465.07.57-1.382 2.719-.063 1.203 1.031.61 1.704-.004.769.218 1.461 4.903a10.822 10.822 0 004.137-5.934l-.051-.063zm-1.457-3.72l-1.621-.437-.164-.199.035.473-.043.035-1.27-1.324v.007l-.207.051-.03-.05.062.257.5.364.035.27-.098.163-.07.05-.09.036-.48-.75-.715.004-1.496 1.11 1.96-.075.887.805.426.148 2.352-.472.027-.465z"/></g><defs><clipPath id="ha"><path d="M0 0h24v24H0z"/></clipPath></defs></svg>