<?xml version="1.0" encoding="utf-8"?><svg xmlns="http://www.w3.org/2000/svg" width="24" height="24" viewBox="0 0 24 24"><g clip-path="url(#ana)"><path d="M12 0c-.523 0-1.059.184-1.438.563C10.184.94 10 1.477 10 2v1c0 .27.18.496.281.75-.183.16-.355.3-.531.5-.46.512-.875 1.18-1.188 1.969A5.85 5.85 0 007 6c-2.91 0-5.316 2.082-5.875 5H0v3h1l2 10h18l2-10h1v-3h-3.656L20 10.75V8.906c0-1.3-.586-2.617-1.281-3.719a7.412 7.412 0 00-1.063-1.312c.14-.29.344-.559.344-.875V2c0-.523-.184-1.059-.563-1.438C17.06.184 16.523 0 16 0h-4zm0 2h4v1h-3.875A.667.667 0 0012 3V2zm0 3h3.875c-.04.008.129.047.313.219.242.23.566.625.843 1.062.555.875.969 2.028.969 2.625v.375l-4.219-3.094-.656-.5-.625.594-1.406 1.375a6.599 6.599 0 00-.719-.593c.223-.618.527-1.118.844-1.47.344-.382.722-.55.781-.593zM7 8c1.027 0 1.883.418 2.594 1.063l-2 1.937H3.187C3.668 9.145 5.133 8 7 8zm6.281.313L16.937 11H10.47l2.812-2.688zM7 14h2v8H7v-8zm4 0h2v8h-2v-8zm4 0h2v8h-2v-8z"/></g><defs><clipPath id="ana"><path d="M0 0h24v24H0z"/></clipPath></defs></svg>