<?xml version="1.0" encoding="utf-8"?><svg xmlns="http://www.w3.org/2000/svg" width="32" height="32" viewBox="0 0 32 32"><g clip-path="url(#apa)"><path fill-opacity=".9" d="M16 0c-4.38 0-6.917 1.125-6.917 1.125l.042.125c.02.068.5 1.604 1.542 4.083-.266.136-.927.276-1.459.542-1.599.531-3.067 1.583-4 2.917L.417 16.125C.15 16.656 0 17.219 0 17.75V28h4v-8.125c0-.401.151-.818.417-1.083l2.25-3.334v15.209C6.667 31.4 10.844 32 16 32c5.156 0 9.333-.599 9.333-1.333V15.458l2.25 3.334c.266.265.417.682.417 1.083V28h4V17.75c0-.531-.14-1.094-.542-1.625l-4.791-7.333a7.255 7.255 0 00-3.875-3.042c-.532-.135-1.193-.281-1.459-.417 1.042-2.479 1.521-4.015 1.542-4.083l.042-.125S20.38 0 16 0zm0 1.333c2.807 0 4.662.453 5.625.75L18.667 4s.666 2.667-2.667 6.667C12.667 6.667 13.333 4 13.333 4l-2.958-1.917c.963-.297 2.818-.75 5.625-.75z"/></g><defs><clipPath id="apa"><path d="M0 0h32v32H0z"/></clipPath></defs></svg>