<?xml version="1.0" encoding="utf-8"?><svg xmlns="http://www.w3.org/2000/svg" width="24" height="24" viewBox="0 0 24 24"><g clip-path="url(#la)"><path d="M12 0v3c3 0 2 1 4 1h1V1h-1c-2 0-1-1-4-1zm0 4C9.54 4 7.543 5.688 7.094 8H6v2h1v3h2v-3h2v3h2v-3h2v3h2v-3h1V8h-1.094C16.457 5.687 14.461 4 12 4zM0 14v10h24V14H0zm3 2h2v2H3v-2zm4 0h2v2H7v-2zm4 0h2v2h-2v-2zm4 0h2v2h-2v-2zm4 0h2v2h-2v-2zM3 20h2v2H3v-2zm4 0h2v2H7v-2zm4 0h2v2h-2v-2zm4 0h2v2h-2v-2zm4 0h2v2h-2v-2z"/></g><defs><clipPath id="la"><path d="M0 0h24v24H0z"/></clipPath></defs></svg>