<?xml version="1.0" encoding="utf-8"?><svg xmlns="http://www.w3.org/2000/svg" width="24" height="24" viewBox="0 0 24 24"><path d="M8 2.398c.102 0 .102 0 .2.102.1.102.402.398.402.602 0 .199 0 .699.097 1.097.2.5.403 1.801.7 2.5.3.7.402 1.102.101 1.5-.3.5-2.2 2.403-2.2 2.403s.5 1 1.098 1.597c.5.7 1.301 1.7 2.301 2.5 1 .903 2.102 1.7 3.2 2.2 1.101-1.098 2-2 2.3-2.2.301-.199.301-.3.801-.097.5.199 1.2.5 2 .597.7.102 1.5.2 2 .301.5.102.5.102.602.3.199.2.296.5.296.598V20.5c0 .3 0 .3-.097.5-.102.2-.2.7-.2.7 0 .1-.5.3-.8.3-.301 0-1.403 0-2.102-.102-.699-.097-2.597-.5-3.3-.796-.7-.204-3-1-5.797-3.102C7 16 5.102 13.3 4 11.102 2.898 8.898 2.3 6.5 2.2 5.3 2 4.1 2 3.6 2 3.3c.102-.301.398-.602.602-.7.199-.101.5-.203.796-.203H8z"/></svg>