<?xml version="1.0" encoding="utf-8"?><svg xmlns="http://www.w3.org/2000/svg" width="24" height="24" viewBox="0 0 24 24"><g clip-path="url(#na)"><path d="M17 0c-1.8 0-3.605.695-4.906 2.094l-10 10C.125 14.063-.367 16.984.53 19.469L.5 19.5c.023.066.07.121.094.188.082.21.168.425.281.625.086.156.18.32.281.468.27.43.567.848.938 1.219 1.3 1.3 3.105 2 4.906 2 1.152 0 2.293-.3 3.313-.875a7 7 0 00.437-.25c.05-.035.105-.059.156-.094A6.837 6.837 0 0012 21.906l6-6-.063-.031 3.97-3.969c2.698-2.699 2.698-7.207 0-9.906C20.604.7 18.8 0 17 0zm0 2c1.3 0 2.602.5 3.5 1.5 1.898 1.898 1.898 5.094 0 7.094L16.594 14.5 11 8.906l-8.844 8.938A5.185 5.185 0 013.5 13.406l10-10C14.398 2.508 15.7 2 17 2z"/></g><defs><clipPath id="na"><path d="M0 0h24v24H0z"/></clipPath></defs></svg>