<svg xmlns="http://www.w3.org/2000/svg" width="56" height="56" viewBox="0 0 56 56"><path fill-opacity=".9" d="M11.667 7C9.117 7 7 9.116 7 11.667v4.666h4.667v-4.666h4.666V7h-4.666zM21 7v4.667h4.667V7H21zm9.333 0v4.667H35V7h-4.667zm9.334 0v4.667h4.666v4.666H49v-4.666C49 9.117 46.884 7 44.333 7h-4.666zM7 21v4.667h4.667V21H7zm37.333 0v4.667H49V21h-4.667zm4.644 9.064l-4.666.023.022 4.922L49 34.991l-.023-4.927zM7 30.334V35h4.667v-4.667H7zm0 9.333v4.666C7 46.883 9.116 49 11.667 49h4.666v-4.667h-4.666v-4.666H7zm37.333 0v4.666h-4.666V49h4.666C46.883 49 49 46.884 49 44.333v-4.666h-4.667zM21 44.333V49h4.667v-4.667H21zm9.333 0V49H35v-4.667h-4.667z"/></svg>