<?xml version="1.0" encoding="utf-8"?><svg viewBox="0 0 56 56" xmlns="http://www.w3.org/2000/svg" xmlns:xlink="http://www.w3.org/1999/xlink"><style>:root>svg{display:none}:root>svg:target{display:block}</style><svg viewBox="0 0 56 56" id="Air_Quality" xmlns="http://www.w3.org/2000/svg"><path fill-opacity=".9" d="M21 23.333c2.884 0 4.464-1.066 7-2.333 2.147-1.073 5.217-2.333 7-2.333 1.783 0 4.853 1.26 7 2.333 2.536 1.267 4.116 2.333 7 2.333v-4.666c-1.421 0-3-.649-4.667-1.454V4.667H11.667v10.371C10.17 14.441 8.63 14 7 14v4.667c1.421 0 3 .648 4.667 1.453v4.252C10.17 23.774 8.63 23.333 7 23.333V28c1.421 0 3 .649 4.667 1.454v4.251C10.17 33.108 8.63 32.667 7 32.667v4.666c1.421 0 3 .65 4.667 1.454v12.546h32.666V40.97C45.83 41.564 47.37 42 49 42v-4.667c-1.783 0-4.853-1.26-7-2.333-2.536-1.267-4.116-2.333-7-2.333-2.884 0-4.464 1.066-7 2.333-2.147 1.073-5.217 2.333-7 2.333-1.421 0-3-.648-4.667-1.453v-4.245c1.496.595 3.036 1.032 4.667 1.032 2.884 0 5.507-1.314 8.043-2.579C31.19 29.015 33.217 28 35 28c1.783 0 3.81 1.015 5.957 2.088 2.536 1.267 5.159 2.579 8.043 2.579V28c-1.783 0-4.853-1.26-7-2.333-2.536-1.267-4.116-2.334-7-2.334-2.884 0-4.464 1.067-7 2.334C25.853 26.74 22.783 28 21 28c-1.421 0-3-.649-4.667-1.454v-4.244c1.496.595 3.036 1.031 4.667 1.031z"/></svg><svg viewBox="0 0 24 24" id="Apartment" xmlns="http://www.w3.org/2000/svg"><path d="M6.5 0L1 4v20h22V4l-5.5-4L12 4 6.5 0zm0 2L8 3.094V4H5v-.906L6.5 2zm11 0L19 3.094V4h-3v-.906L17.5 2zM3 7h2v2H3V7zm5 0h2v2H8V7zm6 0h2v2h-2V7zm5 0h2v2h-2V7zM3 11h2v2H3v-2zm5 0h2v2H8v-2zm6 0h2v2h-2v-2zm5 0h2v2h-2v-2zM3 15h2v2H3v-2zm5 0h2v2H8v-2zm6 0h2v2h-2v-2zm5 0h2v2h-2v-2zM3 19h2v2H3v-2zm5 0h2v2H8v-2zm6 0h2v2h-2v-2zm5 0h2v2h-2v-2z"/></svg><svg viewBox="0 0 32 32" id="Barber_Chair" xmlns="http://www.w3.org/2000/svg"><g clip-path="url(#aca)"><path fill-opacity=".9" d="M28.25.125C25.448-.01 23.318 2.667 22.917 8c-.037.411-.016.875-.042 1.333h-5.417c-2.385 0-4.302.782-5.416 2.292-.922 1.25-1.245 2.813-1.334 4.583-2.474.157-4.041.912-4.041 2.459 0 2.4 1.057 4 2.791 4h15.459c1.125 0 1.593-1.125 1.708-2.125.677-.177.922-.521 1.125-1.334.135-.802 2.651-14.802 2.917-16C30.802 2.01 30.65.26 28.25.125zM17.458 12h5.334c.036 2.167.276 4.412.833 6.083-2.927-.942-7.26-1.666-9.75-1.833-.172-.016-.333-.031-.5-.042.099-1.39.39-2.4.833-3 .552-.755 1.365-1.208 3.25-1.208zM8.542 24c-1.068 2.401-2.667 4-2.667 4H1.583C.651 28 0 28.651 0 29.583v1.084h6.667S9.182 28.53 10.25 24H8.542zM16 24v4.458l-6.542 2.209V32h15.75v-1.333l-6.541-2.209V24H16z"/></g><defs><clipPath id="aca"><path d="M0 0h32v32H0z"/></clipPath></defs></svg><svg viewBox="0 0 24 24" id="Bench" xmlns="http://www.w3.org/2000/svg"><path d="M3 4v1H1v2h2v1H1v2h2v1H1v2h2v1h2v-1h14v1h2v-1h2v-2h-2v-1h2V8h-2V7h2V5h-2V4h-2v1H5V4H3zm2 3h14v1H5V7zm0 3h14v1H5v-1zm-5 5v3h1v6h2v-6h1v4h2v-4h12v4h2v-4h1v6h2v-6h1v-3H0z"/></svg><svg viewBox="0 0 24 24" id="Brick" xmlns="http://www.w3.org/2000/svg"><g clip-path="url(#aea)"><path d="M12 0L.687 2.813l-.03.03L0 3v.5A.986.986 0 000 4v15l12 5 12-5V3L12 0zm0 2.094l8.406 2.094-6.625 2.218-8.906-2.531L12 2.094zm.594.812c-.7 0-1.399.082-2 .281l-.906.313c-.602.2-.876.395-.876.594 0 .199.274.394.876.593.601.102 1.207.22 1.906.22.601-.102 1.219-.114 1.719-.313l-.907-.282c-.3.102-.601.188-1 .188-.398 0-.695.008-1.094-.094-.3 0-.507-.113-.406-.312.102-.102.29-.207.688-.407l.906-.28c.398-.102.914-.22 1.313-.22.398 0 .886.024 1.187.126.398.101.594.18.594.28 0 .102-.2.212-.5.313l.812.188c.5-.2.79-.301.688-.5-.102-.2-.399-.399-1-.5-.602-.2-1.2-.188-2-.188zM2 5.125l10 2.844v13.937L2 17.688V5.124zm4.094 3.281l-2.188 7.906L5 16.688l.406-1.875 2.282.876.625 2.218 1.093.5-2.312-9.718-1-.282zm.5 2.094l.812 3.813-1.718-.626.906-3.187z"/></g><defs><clipPath id="aea"><path d="M0 0h24v24H0z"/></clipPath></defs></svg><svg viewBox="0 0 32 32" id="Clinic" xmlns="http://www.w3.org/2000/svg"><path fill-opacity=".9" d="M16 .083L15.333.5.375 9.833l1.375 2.209L16 3.125l14.25 8.917 1.375-2.209L16.667.5 16 .083zm0 5.792L2.667 14.25v15.083h26.666V14.25L16 5.875zm-1.333 7.458h2.666v4h4V20h-4v4h-2.666v-4h-4v-2.667h4v-4z"/></svg><svg viewBox="0 0 32 32" id="Dumbbell" xmlns="http://www.w3.org/2000/svg"><path fill-opacity=".9" d="M6.667 5.333v21.334h4v-8h10.666v8h4V5.333h-4v8H10.667v-8h-4zm-4 1.334v6.666H0v5.334h2.667v6.666h2.666V6.667H2.667zm24 0v18.666h2.666v-6.666H32v-5.334h-2.667V6.667h-2.666z"/></svg><svg viewBox="0 0 24 24" id="External_Link" xmlns="http://www.w3.org/2000/svg"><path d="M20.784 2.392a.799.799 0 00-.089.008H16A.8.8 0 1016 4h2.869l-8.235 8.235a.8.8 0 101.132 1.13L20 5.132v2.87a.799.799 0 001.542.309A.799.799 0 0021.6 8V3.302a.8.8 0 00-.816-.91zM4.8 5.6c-.874 0-1.6.726-1.6 1.6v12c0 .875.725 1.6 1.6 1.6h12c.874 0 1.6-.725 1.6-1.6V9.138l-1.6 1.6V19.2h-12v-12h8.462l1.6-1.6H4.8z"/></svg><svg viewBox="0 0 24 24" id="Facebook" xmlns="http://www.w3.org/2000/svg"><path d="M12 1.44C6.168 1.44 1.44 6.168 1.44 12c0 5.294 3.9 9.666 8.982 10.43v-7.631H7.809v-2.776h2.613v-1.847c0-3.058 1.49-4.4 4.031-4.4 1.218 0 1.861.09 2.166.13V8.33h-1.734c-1.079 0-1.456 1.023-1.456 2.176v1.517h3.163l-.43 2.776H13.43v7.653c5.155-.7 9.13-5.106 9.13-10.452 0-5.832-4.727-10.56-10.56-10.56z"/></svg><svg viewBox="0 0 24 24" id="Factory" xmlns="http://www.w3.org/2000/svg"><g clip-path="url(#aja)"><path d="M22 0h-4l-1.5 17.602L16.102 11H14V6l-7 5V6l-7 5v13h24L22 0zM5 21H3v-3h2v3zm0-5H3v-3h2v3zm4 5H7v-3h2v3zm0-5H7v-3h2v3zm4 5h-2v-3h2v3zm0-5h-2v-3h2v3z"/></g><defs><clipPath id="aja"><path d="M0 0h24v24H0z"/></clipPath></defs></svg><svg viewBox="0 0 24 24" id="Garage" xmlns="http://www.w3.org/2000/svg"><g clip-path="url(#aka)"><path d="M12 0L0 7v17h24V7L12 0zm0 6c3.398 0 4.406.406 4.406.406.602.2 1.7.48 2 1.282.2.5.992 2.613 1.594 4.312h.813c.398 0 .773.29.875.688l.218.718c.2.301-.008.594-.406.594h-.813c.102.3.22.5.22.5.1.102.093.586.093.688v6.124c0 .399-.29.688-.688.688h-2.625a.665.665 0 01-.687-.688V20H7v1.313c0 .398-.29.687-.688.687H3.688A.665.665 0 013 21.312v-6.125c0-.101-.008-.585.094-.687 0 0 .117-.2.219-.5H2.5c-.398 0-.605-.29-.406-.688l.219-.718c.101-.301.476-.594.874-.594H4c.602-1.8 1.395-4.012 1.594-4.313.3-.699 1.3-1.082 2-1.28C7.594 6.406 8.602 6 12 6zm0 1.5c-5.102 0-5.21.8-5.313 1-.101.3-.687 1.613-1.187 3.813 0 0 2.2.687 6.5.687s6.5-.688 6.5-.688c-.5-2-1.113-3.507-1.313-3.906 0 0-.085-.906-5.187-.906zm7.094 7.313c-.399 0-1.305.394-1.907.593-.601.301-1.28.5-1.28 1 0 .399.198.594 1 .594H18c1 0 1.906-.086 1.906-.688v-.718c.102-.7-.312-.781-.812-.781zM4.5 14.905c-.309.031-.594.164-.594.688v.719c0 .601 1.008.687 1.906.687H7c.8 0 1-.195 1-.594 0-.398-.71-.707-1.313-.906-.601-.3-1.375-.594-1.875-.594-.101 0-.21-.011-.312 0z"/></g><defs><clipPath id="aka"><path d="M0 0h24v24H0z"/></clipPath></defs></svg><svg viewBox="0 0 24 24" id="Globe" xmlns="http://www.w3.org/2000/svg"><g clip-path="url(#ala)"><path d="M20.82 9.613l-.054-.078.047-.152.128.023.118.067.015-.012-.039.105-.105.051-.11-.004zm.664.707l-.047-.168-1.019-.66-.246-.015-.223.242-.11.3.09.165 1.555.136zm-15.66-.797l-.117.422.383-.433.031-.133-.164-.066-.133.21zm.23-.683v.023l-.652.309.825-.164-.172-.168zm.497.82l.082-.062.07-.164-.012.02.055-.192-.152-.024-.121.032-.078.082-.04.14.106.133.09.035zm13.062-2.945l-.117-.063-.523-.035-.22-.183.267-.98-1.301 2.105-.344.253.637.243 1.601-1.34zm1.227 5.84l1.297 2.054-1.047-1.945-.25-.11zM24 12c0 6.629-5.371 12-12 12-6.625 0-12-5.371-12-12S5.375 0 12 0c6.629 0 12 5.371 12 12zm-8.73-4.848l.003 1.024.207.52.493-.114.027-.336-.73-1.094zM16 5.324l-.176-.07-.37.082-.356-.078-.016.441.04.098.48.047.304-.242.094-.278zm-7.113-3.18l.597-.023 1.168-.762c-.375.047-.738.11-1.097.196l-.211.28-.457.31zm-.746.348l.394.317.504.066.316-.3-.19-.028-.778-.445-.227-.043-.02.433zm-1.032-.047l.043.059.223-.016.238-.101.13-.16-.048-.067c-.199.086-.39.188-.586.285zM6.535 3.66l.297.043.211-.246.059-.289-.16-.082-.403.445-.004.13zm-2.148.824l.527.301.777-.36.606-.648.016-.586-.524.102-.055-.02c-.367.262-.714.551-1.046.86l.054.058-.316.22-.04.073zm-2.953 8.48l-.235-.398c0 .036.004.07.008.106l.219.488.008-.195zm10.656 4.661l-.543-.402-1.55-.461-.907-1.188-1.121-.426-2.63-.09-.796-1.343-.211-.027-.652.316-.239-.254-.043-.367.079-.305.414-.558.488-.274 1.223.227.18.515.374.086-.004-.781 1.024-1.488 2.258-1.262-.329-.04-.582-.433 1.485-.422.055.133-.024.125-.09.121-.164.114.117.16.364.015.293-.109-.973-2.352-.137.016-1.187-.57-.266.258-.691 1.77-.332-.302-.793-.363-.489-.555.575-.867 1.757-1.36.262-.734.809.512.129.281-.852.696.848.531.183-.098.09.004.36-.566-.082-.094.496-.543-.38-.656-.984-.836.52-.094-.027-.137-.286-.062-.82.46.266-.433-.551.176-.098 1.348-.437.297-.309-.29.805-1.503-.063-.063-.074-.031h-.086l-.094.035-1.28 1.785.027-.11.128-.245-.046-.102-.22.13-1.843.378-.336-.184a10.785 10.785 0 00-2.902 7.438c0 .035.008.07.008.105l.004-.015.265.097.977 1.657 2.933 1.293.403.445.007.59-.367.875-.02.476 1.274 2.461.04 1.367a10.86 10.86 0 002.183.942l1.332-1.707 1.183-.871.692-2.262zM7.656 5.598l-.101-.145-.098-.023-.367.465.062.07h.453l.141-.09-.09-.277zm4.504.968l3.05-2.636.716-1.918a10.743 10.743 0 00-4.004-.742c-.188 0-.367.02-.555.03l-.14.079-.286.41-.058.277.113.204.781.101.23 1.516-.39.914-.094.668.247.71.39.387zm10.219 8.329l.082-.051c.238-.903.371-1.852.363-2.828-.004-.7-.082-1.375-.21-2.036l-.06-.117.024-.078a10.69 10.69 0 00-1.933-4.187l-.067.027-.394-.402.144-.043c-.34-.407-.71-.782-1.105-1.133l-.332-.024-.602.258-1.582 2.149.074.277.742.57v.293l-2.085 1.54.015.199.168.285.059.254-.907.359-.07.465.07.57-1.382 2.719-.063 1.203 1.031.61 1.704-.004.769.218 1.461 4.903a10.822 10.822 0 004.137-5.934l-.051-.063zm-1.457-3.72l-1.621-.437-.164-.199.035.473-.043.035-1.27-1.324v.007l-.207.051-.03-.05.062.257.5.364.035.27-.098.163-.07.05-.09.036-.48-.75-.715.004-1.496 1.11 1.96-.075.887.805.426.148 2.352-.472.027-.465z"/></g><defs><clipPath id="ala"><path d="M0 0h24v24H0z"/></clipPath></defs></svg><svg viewBox="0 0 56 56" id="Grid_2" xmlns="http://www.w3.org/2000/svg"><path fill-opacity=".9" d="M7 7v18.667h18.667V7H7zm23.333 0v18.667H49V7H30.333zM7 30.333V49h18.667V30.333H7zm23.333 0V49H49V30.333H30.333z"/></svg><svg viewBox="0 0 24 24" id="Ingredients" xmlns="http://www.w3.org/2000/svg"><g clip-path="url(#ana)"><path d="M12 0c-.523 0-1.059.184-1.438.563C10.184.94 10 1.477 10 2v1c0 .27.18.496.281.75-.183.16-.355.3-.531.5-.46.512-.875 1.18-1.188 1.969A5.85 5.85 0 007 6c-2.91 0-5.316 2.082-5.875 5H0v3h1l2 10h18l2-10h1v-3h-3.656L20 10.75V8.906c0-1.3-.586-2.617-1.281-3.719a7.412 7.412 0 00-1.063-1.312c.14-.29.344-.559.344-.875V2c0-.523-.184-1.059-.563-1.438C17.06.184 16.523 0 16 0h-4zm0 2h4v1h-3.875A.667.667 0 0012 3V2zm0 3h3.875c-.04.008.129.047.313.219.242.23.566.625.843 1.062.555.875.969 2.028.969 2.625v.375l-4.219-3.094-.656-.5-.625.594-1.406 1.375a6.599 6.599 0 00-.719-.593c.223-.618.527-1.118.844-1.47.344-.382.722-.55.781-.593zM7 8c1.027 0 1.883.418 2.594 1.063l-2 1.937H3.187C3.668 9.145 5.133 8 7 8zm6.281.313L16.937 11H10.47l2.812-2.688zM7 14h2v8H7v-8zm4 0h2v8h-2v-8zm4 0h2v8h-2v-8z"/></g><defs><clipPath id="ana"><path d="M0 0h24v24H0z"/></clipPath></defs></svg><svg viewBox="0 0 24 24" id="Instagram" xmlns="http://www.w3.org/2000/svg"><path d="M7.68 1.44a6.246 6.246 0 00-6.24 6.24v8.64a6.246 6.246 0 006.24 6.24h8.64a6.246 6.246 0 006.24-6.24V7.68a6.246 6.246 0 00-6.24-6.24H7.68zm10.08 3.84c.528 0 .96.432.96.96s-.432.96-.96.96a.963.963 0 01-.96-.96c0-.528.432-.96.96-.96zM12 6.72A5.283 5.283 0 0117.28 12 5.283 5.283 0 0112 17.28 5.283 5.283 0 016.72 12 5.283 5.283 0 0112 6.72zm0 .96c-2.38 0-4.32 1.94-4.32 4.32 0 2.38 1.94 4.32 4.32 4.32 2.38 0 4.32-1.94 4.32-4.32 0-2.38-1.94-4.32-4.32-4.32z"/></svg><svg viewBox="0 0 32 32" id="Jacket" xmlns="http://www.w3.org/2000/svg"><g clip-path="url(#apa)"><path fill-opacity=".9" d="M16 0c-4.38 0-6.917 1.125-6.917 1.125l.042.125c.02.068.5 1.604 1.542 4.083-.266.136-.927.276-1.459.542-1.599.531-3.067 1.583-4 2.917L.417 16.125C.15 16.656 0 17.219 0 17.75V28h4v-8.125c0-.401.151-.818.417-1.083l2.25-3.334v15.209C6.667 31.4 10.844 32 16 32c5.156 0 9.333-.599 9.333-1.333V15.458l2.25 3.334c.266.265.417.682.417 1.083V28h4V17.75c0-.531-.14-1.094-.542-1.625l-4.791-7.333a7.255 7.255 0 00-3.875-3.042c-.532-.135-1.193-.281-1.459-.417 1.042-2.479 1.521-4.015 1.542-4.083l.042-.125S20.38 0 16 0zm0 1.333c2.807 0 4.662.453 5.625.75L18.667 4s.666 2.667-2.667 6.667C12.667 6.667 13.333 4 13.333 4l-2.958-1.917c.963-.297 2.818-.75 5.625-.75z"/></g><defs><clipPath id="apa"><path d="M0 0h32v32H0z"/></clipPath></defs></svg><svg viewBox="0 0 24 24" id="Menu" xmlns="http://www.w3.org/2000/svg"><path d="M0 2v2h24V2H0zm0 9v2h24v-2H0zm0 9v2h24v-2H0z"/></svg><svg viewBox="0 0 24 24" id="Parliament" xmlns="http://www.w3.org/2000/svg"><g clip-path="url(#ara)"><path d="M12 0v3c3 0 2 1 4 1h1V1h-1c-2 0-1-1-4-1zm0 4C9.54 4 7.543 5.688 7.094 8H6v2h1v3h2v-3h2v3h2v-3h2v3h2v-3h1V8h-1.094C16.457 5.687 14.461 4 12 4zM0 14v10h24V14H0zm3 2h2v2H3v-2zm4 0h2v2H7v-2zm4 0h2v2h-2v-2zm4 0h2v2h-2v-2zm4 0h2v2h-2v-2zM3 20h2v2H3v-2zm4 0h2v2H7v-2zm4 0h2v2h-2v-2zm4 0h2v2h-2v-2zm4 0h2v2h-2v-2z"/></g><defs><clipPath id="ara"><path d="M0 0h24v24H0z"/></clipPath></defs></svg><svg viewBox="0 0 24 24" id="Phone" xmlns="http://www.w3.org/2000/svg"><path d="M8 2.398c.102 0 .102 0 .2.102.1.102.402.398.402.602 0 .199 0 .699.097 1.097.2.5.403 1.801.7 2.5.3.7.402 1.102.101 1.5-.3.5-2.2 2.403-2.2 2.403s.5 1 1.098 1.597c.5.7 1.301 1.7 2.301 2.5 1 .903 2.102 1.7 3.2 2.2 1.101-1.098 2-2 2.3-2.2.301-.199.301-.3.801-.097.5.199 1.2.5 2 .597.7.102 1.5.2 2 .301.5.102.5.102.602.3.199.2.296.5.296.598V20.5c0 .3 0 .3-.097.5-.102.2-.2.7-.2.7 0 .1-.5.3-.8.3-.301 0-1.403 0-2.102-.102-.699-.097-2.597-.5-3.3-.796-.7-.204-3-1-5.797-3.102C7 16 5.102 13.3 4 11.102 2.898 8.898 2.3 6.5 2.2 5.3 2 4.1 2 3.6 2 3.3c.102-.301.398-.602.602-.7.199-.101.5-.203.796-.203H8z"/></svg><svg viewBox="0 0 24 24" id="Pill" xmlns="http://www.w3.org/2000/svg"><g clip-path="url(#ata)"><path d="M17 0c-1.8 0-3.605.695-4.906 2.094l-10 10C.125 14.063-.367 16.984.53 19.469L.5 19.5c.023.066.07.121.094.188.082.21.168.425.281.625.086.156.18.32.281.468.27.43.567.848.938 1.219 1.3 1.3 3.105 2 4.906 2 1.152 0 2.293-.3 3.313-.875a7 7 0 00.437-.25c.05-.035.105-.059.156-.094A6.837 6.837 0 0012 21.906l6-6-.063-.031 3.97-3.969c2.698-2.699 2.698-7.207 0-9.906C20.604.7 18.8 0 17 0zm0 2c1.3 0 2.602.5 3.5 1.5 1.898 1.898 1.898 5.094 0 7.094L16.594 14.5 11 8.906l-8.844 8.938A5.185 5.185 0 013.5 13.406l10-10C14.398 2.508 15.7 2 17 2z"/></g><defs><clipPath id="ata"><path d="M0 0h24v24H0z"/></clipPath></defs></svg><svg fill="none" viewBox="0 0 24 24" id="Play" xmlns="http://www.w3.org/2000/svg"><path d="M4.8 2.4a.8.8 0 00-.8.8v17.6a.8.8 0 001.264.65l.002.002 15.867-8.726a.8.8 0 00-.022-1.464L5.266 2.548h-.002A.8.8 0 004.8 2.4z" fill="#302A24"/></svg><svg viewBox="0 0 24 24" id="Playground" xmlns="http://www.w3.org/2000/svg"><g clip-path="url(#ava)"><path d="M5 0L0 4h10L5 0zM0 5v8h10V5H0zm5 1c1.7 0 3 1.3 3 3s-1.3 3-3 3-3-1.3-3-3 1.3-3 3-3zm6 4v5c5.3.898 2.898 9 13 9v-3c-7.8-1.398-5.8-9.602-13-11zM0 14v10h2V14H0zm8 0v2H3v2h5v2H3v2h5v2h2V14H8z"/></g><defs><clipPath id="ava"><path d="M0 0h24v24H0z"/></clipPath></defs></svg><svg viewBox="0 0 32 32" id="Restaurant" xmlns="http://www.w3.org/2000/svg"><path fill-opacity=".9" d="M9.459 0v7.875c0 .401-.391.792-.792.792s-.792-.391-.792-.792V.125c-1.333.135-2 .292-2 .292s-.542 6.109-.542 9.708c0 4 4 4.026 4 5.625C9.334 17.083 8 25.333 8 29.333A2.672 2.672 0 0010.667 32a2.672 2.672 0 002.667-2.667c0-4-1.334-12.28-1.334-13.75 0-1.468 4-1.458 4-5.458 0-2.266-.416-9.708-.416-9.708S14.927.26 13.459.125V8c0 .401-.391.792-.792.792-.531 0-.792-.391-.792-.792V0H9.46zm15.875 0c-2.667 0-6.667 8-6.667 15.333 0 0 3.333 2.401 3.333 4.667 0 4.135-2 6.401-2 9.333A2.672 2.672 0 0022.667 32a2.672 2.672 0 002.666-2.667V0z"/></svg><svg viewBox="0 0 32 32" id="School" xmlns="http://www.w3.org/2000/svg"><path fill-opacity=".9" d="M16 2.607L2.284 6.724l.765 2.552L16 5.393l12.95 3.883.766-2.552L16 2.607zM2.666 12v14.667c9.334 0 13.334 4 13.334 4s4-4 13.333-4V12C20 12 16 16 16 16s-4-4-13.334-4z"/></svg><svg viewBox="0 0 24 24" id="Secure" xmlns="http://www.w3.org/2000/svg"><g clip-path="url(#aya)"><path d="M12 0C5.371 0 0 5.371 0 12s5.371 12 12 12 12-5.371 12-12S18.629 0 12 0zm0 4c2.207 0 4 1.793 4 4v3h2v7H6v-7h2V8c0-2.207 1.793-4 4-4zm0 2c-1.102 0-2 .898-2 2v3h4V8c0-1.102-.898-2-2-2z"/></g><defs><clipPath id="aya"><path d="M0 0h24v24H0z"/></clipPath></defs></svg><svg viewBox="0 0 56 56" id="Select_None" xmlns="http://www.w3.org/2000/svg"><path fill-opacity=".9" d="M11.667 7C9.117 7 7 9.116 7 11.667v4.666h4.667v-4.666h4.666V7h-4.666zM21 7v4.667h4.667V7H21zm9.333 0v4.667H35V7h-4.667zm9.334 0v4.667h4.666v4.666H49v-4.666C49 9.117 46.884 7 44.333 7h-4.666zM7 21v4.667h4.667V21H7zm37.333 0v4.667H49V21h-4.667zm4.644 9.064l-4.666.023.022 4.922L49 34.991l-.023-4.927zM7 30.334V35h4.667v-4.667H7zm0 9.333v4.666C7 46.883 9.116 49 11.667 49h4.666v-4.667h-4.666v-4.666H7zm37.333 0v4.666h-4.666V49h4.666C46.883 49 49 46.884 49 44.333v-4.666h-4.667zM21 44.333V49h4.667v-4.667H21zm9.333 0V49H35v-4.667h-4.667z"/></svg><svg viewBox="0 0 56 56" id="User_Groups" xmlns="http://www.w3.org/2000/svg"><g clip-path="url(#baa)"><path fill-opacity=".9" d="M18.667 2.333c-3.865 0-7 3.136-7 7 0 3.865 3.135 7 7 7 3.864 0 7-3.135 7-7 0-3.864-3.136-7-7-7zm18.666 0c-3.864 0-7 3.136-7 7 0 3.865 3.136 7 7 7 3.865 0 7-3.135 7-7 0-3.864-3.135-7-7-7zm-28 14c-3.864 0-7 3.136-7 7 0 3.865 3.136 7 7 7 3.865 0 7-3.135 7-7 0-3.864-3.135-7-7-7zm37.334 0c-3.865 0-7 3.136-7 7 0 3.865 3.135 7 7 7 3.864 0 7-3.135 7-7 0-3.864-3.136-7-7-7zM28 28c-3.865 0-7 3.135-7 7 0 3.864 3.135 7 7 7s7-3.136 7-7c0-3.865-3.135-7-7-7zM4.885 31.5C2.087 33.13 0 36.167 0 39.667v2.77s2.333 1.896 9.333 1.896 9.334-1.896 9.334-1.896v-2.77c0-3.5-2.088-6.536-4.886-8.167-1.403.702-2.816 1.167-4.448 1.167-1.631 0-3.044-.465-4.448-1.167zm37.334 0c-2.798 1.631-4.886 4.667-4.886 8.167v2.77s2.334 1.896 9.334 1.896S56 42.437 56 42.437v-2.77c0-3.5-2.087-6.536-4.885-8.167-1.404.702-2.817 1.167-4.448 1.167-1.632 0-3.045-.465-4.448-1.167zM23.552 43.167c-2.798 1.631-4.885 4.666-4.885 8.166v2.771S21 56 28 56s9.333-1.896 9.333-1.896v-2.77c0-3.5-2.087-6.536-4.885-8.167-1.404.701-2.817 1.166-4.448 1.166-1.631 0-3.044-.465-4.448-1.166z"/></g><defs><clipPath id="baa"><path d="M0 0h56v56H0z"/></clipPath></defs></svg><svg viewBox="0 0 24 24" id="WhatsApp" xmlns="http://www.w3.org/2000/svg"><g clip-path="url(#bba)"><path d="M12 .96C5.913.96.96 5.913.96 12c0 1.9.491 3.77 1.422 5.42L.978 22.43a.48.48 0 00.577.596l5.23-1.296A11.047 11.047 0 0012 23.04c6.087 0 11.04-4.953 11.04-11.04C23.04 5.913 18.087.96 12 .96zm5.554 14.936c-.236.653-1.37 1.25-1.914 1.33-.488.072-1.107.102-1.785-.11a16.76 16.76 0 01-1.616-.59c-2.843-1.213-4.7-4.04-4.842-4.226-.141-.187-1.157-1.518-1.157-2.895s.732-2.054.992-2.335c.26-.28.567-.35.756-.35.19 0 .378.002.544.01.174.009.408-.066.637.48.237.561.804 1.938.874 2.079.07.14.118.304.024.49-.094.187-.142.304-.284.467-.142.164-.297.365-.425.491-.142.14-.29.291-.124.571.165.28.734 1.197 1.577 1.939 1.082.953 1.995 1.249 2.279 1.39.283.14.448.116.614-.071.165-.187.708-.817.897-1.097.188-.28.377-.234.638-.14.26.093 1.653.77 1.936.91.284.14.473.21.544.327.07.116.07.676-.165 1.33z"/></g><defs><clipPath id="bba"><path d="M0 0h24v24H0z"/></clipPath></defs></svg></svg>